<mxfile host="app.diagrams.net" agent="Mozilla/5.0 (Windows NT 10.0; Win64; x64) AppleWebKit/537.36 (KHTML, like Gecko) Chrome/140.0.0.0 Safari/537.36" version="28.0.6">
  <diagram name="Page-1" id="KWm5tgV80uvQeEvMJ9jU">
    <mxGraphModel dx="636" dy="947" grid="0" gridSize="1" guides="1" tooltips="1" connect="1" arrows="1" fold="1" page="1" pageScale="1" pageWidth="1169" pageHeight="1654" math="0" shadow="0">
      <root>
        <mxCell id="0" />
        <mxCell id="1" parent="0" />
        <mxCell id="Aar55AHHzQQHQ9_tN8cO-1" value="&lt;font style=&quot;font-size: 19px;&quot;&gt;User&lt;/font&gt;" style="rounded=0;whiteSpace=wrap;html=1;" vertex="1" parent="1">
          <mxGeometry x="301" y="156" width="120" height="60" as="geometry" />
        </mxCell>
        <mxCell id="Aar55AHHzQQHQ9_tN8cO-6" value="&lt;font style=&quot;font-size: 19px;&quot;&gt;Board.txt&lt;/font&gt;" style="rounded=0;whiteSpace=wrap;html=1;" vertex="1" parent="1">
          <mxGeometry x="300" y="353" width="120" height="60" as="geometry" />
        </mxCell>
        <mxCell id="Aar55AHHzQQHQ9_tN8cO-7" value="" style="rounded=1;whiteSpace=wrap;html=1;" vertex="1" parent="1">
          <mxGeometry x="493" y="156" width="120" height="60" as="geometry" />
        </mxCell>
        <mxCell id="Aar55AHHzQQHQ9_tN8cO-8" value="" style="line;strokeWidth=2;html=1;" vertex="1" parent="1">
          <mxGeometry x="493" y="165" width="120" height="10" as="geometry" />
        </mxCell>
        <mxCell id="Aar55AHHzQQHQ9_tN8cO-9" value="&lt;span style=&quot;font-size: 10px;&quot;&gt;1&lt;/span&gt;" style="text;strokeColor=none;fillColor=none;html=1;fontSize=24;fontStyle=1;verticalAlign=middle;align=center;" vertex="1" parent="1">
          <mxGeometry x="481" y="145" width="64" height="25" as="geometry" />
        </mxCell>
        <mxCell id="Aar55AHHzQQHQ9_tN8cO-10" value="&lt;span style=&quot;font-weight: 400;&quot;&gt;&lt;font style=&quot;font-size: 14px;&quot;&gt;setPieceFromClick&lt;/font&gt;&lt;/span&gt;" style="text;strokeColor=none;fillColor=none;html=1;fontSize=24;fontStyle=1;verticalAlign=middle;align=center;" vertex="1" parent="1">
          <mxGeometry x="503" y="170" width="100" height="40" as="geometry" />
        </mxCell>
        <mxCell id="Aar55AHHzQQHQ9_tN8cO-11" value="" style="endArrow=classic;html=1;rounded=0;exitX=1;exitY=0.5;exitDx=0;exitDy=0;entryX=0;entryY=0.5;entryDx=0;entryDy=0;" edge="1" parent="1" source="Aar55AHHzQQHQ9_tN8cO-1" target="Aar55AHHzQQHQ9_tN8cO-7">
          <mxGeometry width="50" height="50" relative="1" as="geometry">
            <mxPoint x="421" y="285" as="sourcePoint" />
            <mxPoint x="471" y="235" as="targetPoint" />
          </mxGeometry>
        </mxCell>
        <mxCell id="Aar55AHHzQQHQ9_tN8cO-12" value="input" style="text;html=1;align=center;verticalAlign=middle;resizable=0;points=[];autosize=1;strokeColor=none;fillColor=none;" vertex="1" parent="1">
          <mxGeometry x="433" y="159" width="50" height="30" as="geometry" />
        </mxCell>
        <mxCell id="Aar55AHHzQQHQ9_tN8cO-13" value="" style="rounded=1;whiteSpace=wrap;html=1;" vertex="1" parent="1">
          <mxGeometry x="697" y="156" width="120" height="60" as="geometry" />
        </mxCell>
        <mxCell id="Aar55AHHzQQHQ9_tN8cO-14" value="" style="line;strokeWidth=2;html=1;" vertex="1" parent="1">
          <mxGeometry x="697" y="165" width="120" height="10" as="geometry" />
        </mxCell>
        <mxCell id="Aar55AHHzQQHQ9_tN8cO-15" value="&lt;span style=&quot;font-size: 10px;&quot;&gt;2&lt;/span&gt;" style="text;strokeColor=none;fillColor=none;html=1;fontSize=24;fontStyle=1;verticalAlign=middle;align=center;" vertex="1" parent="1">
          <mxGeometry x="685" y="145" width="64" height="25" as="geometry" />
        </mxCell>
        <mxCell id="Aar55AHHzQQHQ9_tN8cO-16" value="&lt;font style=&quot;font-weight: normal; font-size: 14px;&quot;&gt;getPossibleMoves&lt;/font&gt;" style="text;strokeColor=none;fillColor=none;html=1;fontSize=24;fontStyle=1;verticalAlign=middle;align=center;" vertex="1" parent="1">
          <mxGeometry x="707" y="170" width="100" height="40" as="geometry" />
        </mxCell>
        <mxCell id="Aar55AHHzQQHQ9_tN8cO-17" value="" style="endArrow=classic;html=1;rounded=0;exitX=1;exitY=0.5;exitDx=0;exitDy=0;entryX=0;entryY=0.5;entryDx=0;entryDy=0;" edge="1" parent="1" source="Aar55AHHzQQHQ9_tN8cO-7" target="Aar55AHHzQQHQ9_tN8cO-13">
          <mxGeometry width="50" height="50" relative="1" as="geometry">
            <mxPoint x="641" y="285" as="sourcePoint" />
            <mxPoint x="691" y="235" as="targetPoint" />
          </mxGeometry>
        </mxCell>
        <mxCell id="Aar55AHHzQQHQ9_tN8cO-18" value="piece, move" style="text;html=1;align=center;verticalAlign=middle;resizable=0;points=[];autosize=1;strokeColor=none;fillColor=none;" vertex="1" parent="1">
          <mxGeometry x="612" y="160" width="90" height="30" as="geometry" />
        </mxCell>
        <mxCell id="Aar55AHHzQQHQ9_tN8cO-19" value="" style="rounded=0;whiteSpace=wrap;html=1;" vertex="1" parent="1">
          <mxGeometry x="805" y="363.9999999999999" width="120" height="30" as="geometry" />
        </mxCell>
        <mxCell id="Aar55AHHzQQHQ9_tN8cO-20" value="" style="endArrow=none;html=1;rounded=0;fontSize=12;startSize=8;endSize=8;curved=1;entryX=0.25;entryY=0;entryDx=0;entryDy=0;exitX=0.25;exitY=1;exitDx=0;exitDy=0;" edge="1" source="Aar55AHHzQQHQ9_tN8cO-19" target="Aar55AHHzQQHQ9_tN8cO-19" parent="1">
          <mxGeometry width="50" height="50" relative="1" as="geometry">
            <mxPoint x="700" y="477.9999999999999" as="sourcePoint" />
            <mxPoint x="750" y="427.9999999999999" as="targetPoint" />
          </mxGeometry>
        </mxCell>
        <mxCell id="Aar55AHHzQQHQ9_tN8cO-21" value="&lt;font style=&quot;font-size: 7px;&quot;&gt;1&lt;/font&gt;" style="text;html=1;align=center;verticalAlign=middle;whiteSpace=wrap;rounded=0;" vertex="1" parent="1">
          <mxGeometry x="812" y="363.9999999999999" width="17" height="29" as="geometry" />
        </mxCell>
        <mxCell id="Aar55AHHzQQHQ9_tN8cO-22" value="&lt;font style=&quot;font-size: 14px;&quot;&gt;Move&lt;/font&gt;" style="text;html=1;align=center;verticalAlign=middle;whiteSpace=wrap;rounded=0;" vertex="1" parent="1">
          <mxGeometry x="850" y="362.9999999999999" width="60" height="30" as="geometry" />
        </mxCell>
        <mxCell id="Aar55AHHzQQHQ9_tN8cO-23" value="" style="endArrow=classic;html=1;rounded=0;exitX=1.002;exitY=0.516;exitDx=0;exitDy=0;entryX=0.5;entryY=0;entryDx=0;entryDy=0;exitPerimeter=0;" edge="1" parent="1" source="Aar55AHHzQQHQ9_tN8cO-13" target="Aar55AHHzQQHQ9_tN8cO-22">
          <mxGeometry width="50" height="50" relative="1" as="geometry">
            <mxPoint x="870" y="360" as="sourcePoint" />
            <mxPoint x="920" y="310" as="targetPoint" />
            <Array as="points">
              <mxPoint x="880" y="187" />
            </Array>
          </mxGeometry>
        </mxCell>
        <mxCell id="Aar55AHHzQQHQ9_tN8cO-24" value="" style="rounded=1;whiteSpace=wrap;html=1;" vertex="1" parent="1">
          <mxGeometry x="492" y="348" width="120" height="60" as="geometry" />
        </mxCell>
        <mxCell id="Aar55AHHzQQHQ9_tN8cO-25" value="" style="line;strokeWidth=2;html=1;" vertex="1" parent="1">
          <mxGeometry x="492" y="357" width="120" height="10" as="geometry" />
        </mxCell>
        <mxCell id="Aar55AHHzQQHQ9_tN8cO-26" value="&lt;font style=&quot;font-size: 10px;&quot;&gt;3&lt;/font&gt;" style="text;strokeColor=none;fillColor=none;html=1;fontSize=24;fontStyle=1;verticalAlign=middle;align=center;" vertex="1" parent="1">
          <mxGeometry x="480" y="337" width="64" height="25" as="geometry" />
        </mxCell>
        <mxCell id="Aar55AHHzQQHQ9_tN8cO-27" value="&lt;span style=&quot;font-weight: normal;&quot;&gt;&lt;font style=&quot;font-size: 14px;&quot;&gt;updateBoard&lt;/font&gt;&lt;/span&gt;" style="text;strokeColor=none;fillColor=none;html=1;fontSize=24;fontStyle=1;verticalAlign=middle;align=center;" vertex="1" parent="1">
          <mxGeometry x="502" y="358" width="100" height="40" as="geometry" />
        </mxCell>
        <mxCell id="Aar55AHHzQQHQ9_tN8cO-28" value="" style="endArrow=classic;html=1;rounded=0;entryX=1;entryY=0.5;entryDx=0;entryDy=0;exitX=0;exitY=0.5;exitDx=0;exitDy=0;" edge="1" parent="1" source="Aar55AHHzQQHQ9_tN8cO-19" target="Aar55AHHzQQHQ9_tN8cO-24">
          <mxGeometry width="50" height="50" relative="1" as="geometry">
            <mxPoint x="780" y="505" as="sourcePoint" />
            <mxPoint x="830" y="455" as="targetPoint" />
          </mxGeometry>
        </mxCell>
        <mxCell id="Aar55AHHzQQHQ9_tN8cO-29" value="move" style="text;html=1;align=center;verticalAlign=middle;resizable=0;points=[];autosize=1;strokeColor=none;fillColor=none;" vertex="1" parent="1">
          <mxGeometry x="691" y="349" width="50" height="30" as="geometry" />
        </mxCell>
        <mxCell id="Aar55AHHzQQHQ9_tN8cO-30" value="move" style="text;html=1;align=center;verticalAlign=middle;resizable=0;points=[];autosize=1;strokeColor=none;fillColor=none;" vertex="1" parent="1">
          <mxGeometry x="880" y="194" width="50" height="30" as="geometry" />
        </mxCell>
        <mxCell id="Aar55AHHzQQHQ9_tN8cO-33" value="" style="endArrow=classic;html=1;rounded=0;entryX=1;entryY=0.5;entryDx=0;entryDy=0;" edge="1" parent="1" target="Aar55AHHzQQHQ9_tN8cO-6">
          <mxGeometry width="50" height="50" relative="1" as="geometry">
            <mxPoint x="491" y="383" as="sourcePoint" />
            <mxPoint x="500" y="449" as="targetPoint" />
          </mxGeometry>
        </mxCell>
        <mxCell id="Aar55AHHzQQHQ9_tN8cO-34" value="move" style="text;html=1;align=center;verticalAlign=middle;resizable=0;points=[];autosize=1;strokeColor=none;fillColor=none;" vertex="1" parent="1">
          <mxGeometry x="432" y="350.5" width="48" height="27" as="geometry" />
        </mxCell>
        <mxCell id="Aar55AHHzQQHQ9_tN8cO-36" value="" style="rounded=1;whiteSpace=wrap;html=1;" vertex="1" parent="1">
          <mxGeometry x="492" y="252" width="120" height="60" as="geometry" />
        </mxCell>
        <mxCell id="Aar55AHHzQQHQ9_tN8cO-37" value="" style="line;strokeWidth=2;html=1;" vertex="1" parent="1">
          <mxGeometry x="492" y="261" width="120" height="10" as="geometry" />
        </mxCell>
        <mxCell id="Aar55AHHzQQHQ9_tN8cO-38" value="&lt;font style=&quot;font-size: 10px;&quot;&gt;4&lt;/font&gt;" style="text;strokeColor=none;fillColor=none;html=1;fontSize=24;fontStyle=1;verticalAlign=middle;align=center;" vertex="1" parent="1">
          <mxGeometry x="480" y="241" width="64" height="25" as="geometry" />
        </mxCell>
        <mxCell id="Aar55AHHzQQHQ9_tN8cO-39" value="&lt;font style=&quot;font-size: 14px; font-weight: normal;&quot;&gt;display&lt;/font&gt;" style="text;strokeColor=none;fillColor=none;html=1;fontSize=24;fontStyle=1;verticalAlign=middle;align=center;" vertex="1" parent="1">
          <mxGeometry x="500" y="267" width="100" height="40" as="geometry" />
        </mxCell>
        <mxCell id="Aar55AHHzQQHQ9_tN8cO-40" value="" style="endArrow=classic;html=1;rounded=0;exitX=0.5;exitY=0;exitDx=0;exitDy=0;" edge="1" parent="1" source="Aar55AHHzQQHQ9_tN8cO-6">
          <mxGeometry width="50" height="50" relative="1" as="geometry">
            <mxPoint x="231" y="365" as="sourcePoint" />
            <mxPoint x="494" y="309" as="targetPoint" />
            <Array as="points">
              <mxPoint x="360" y="309" />
            </Array>
          </mxGeometry>
        </mxCell>
        <mxCell id="Aar55AHHzQQHQ9_tN8cO-41" value="board data" style="text;html=1;align=center;verticalAlign=middle;resizable=0;points=[];autosize=1;strokeColor=none;fillColor=none;" vertex="1" parent="1">
          <mxGeometry x="380" y="308" width="76" height="27" as="geometry" />
        </mxCell>
        <mxCell id="Aar55AHHzQQHQ9_tN8cO-42" value="" style="endArrow=classic;html=1;rounded=0;entryX=0.5;entryY=1;entryDx=0;entryDy=0;exitX=0;exitY=0.5;exitDx=0;exitDy=0;" edge="1" parent="1" source="Aar55AHHzQQHQ9_tN8cO-36" target="Aar55AHHzQQHQ9_tN8cO-1">
          <mxGeometry width="50" height="50" relative="1" as="geometry">
            <mxPoint x="361" y="260" as="sourcePoint" />
            <mxPoint x="361" y="231" as="targetPoint" />
            <Array as="points">
              <mxPoint x="361" y="282" />
            </Array>
          </mxGeometry>
        </mxCell>
        <mxCell id="Aar55AHHzQQHQ9_tN8cO-44" value="board, UI" style="text;html=1;align=center;verticalAlign=middle;resizable=0;points=[];autosize=1;strokeColor=none;fillColor=none;" vertex="1" parent="1">
          <mxGeometry x="383" y="253" width="68" height="27" as="geometry" />
        </mxCell>
      </root>
    </mxGraphModel>
  </diagram>
</mxfile>
